<svg width="570" height="467" viewBox="0 0 570 467" fill="none" xmlns="http://www.w3.org/2000/svg">
<path fill-rule="evenodd" clip-rule="evenodd" d="M102 113.5L82 142.5L83 310.5L62.5 340L83 372.5H0L30 392H83V437.5L102 464.5V392H231V437.5L250.5 409V365L292 392H352.5V409L372 437.5V392H467V466.5L487.5 437.5V392H540L570 372H559L487.5 264V150.5H568.5L540.5 132H487.5V150.5L467 120V132H250.5L276.5 150.5H376.5L467 287V352H324L372 320V274.5L394.5 241H352.5V309.5L324 352H280L250.5 309.5V241H209L231 274.5V352H129.5L110 324L279 71H288.5V0.5L102 280.5V113.5ZM467 232.5V150H448.5V203.5L467 232.5Z" fill="black"/>
</svg>
